<svg viewBox="0 0 400 400" xmlns="http://www.w3.org/2000/svg">
  <defs>
    <linearGradient id="spaceGradient" x1="0%" y1="0%" x2="100%" y2="100%">
      <stop offset="0%" stop-color="#0F0C29" />
      <stop offset="50%" stop-color="#302B63" />
      <stop offset="100%" stop-color="#24243E" />
    </linearGradient>
    <radialGradient id="planetGlow" cx="50%" cy="50%" r="50%" fx="50%" fy="50%">
      <stop offset="0%" stop-color="#FF6B6B" />
      <stop offset="100%" stop-color="#FF6B6B" stop-opacity="0" />
    </radialGradient>
    <filter id="glow" x="-50%" y="-50%" width="200%" height="200%">
      <feGaussianBlur in="SourceGraphic" stdDeviation="5" />
    </filter>
  </defs>
  
  <!-- Background -->
  <rect width="400" height="400" fill="url(#spaceGradient)" />
  
  <!-- Stars -->
  <g id="stars">
    <circle cx="50" cy="50" r="1.5" fill="white" />
    <circle cx="120" cy="70" r="1" fill="white" />
    <circle cx="200" cy="30" r="1.7" fill="white" />
    <circle cx="270" cy="60" r="1.2" fill="white" />
    <circle cx="340" cy="40" r="1" fill="white" />
    <circle cx="30" cy="130" r="1.3" fill="white" />
    <circle cx="80" cy="170" r="1.5" fill="white" />
    <circle cx="130" cy="150" r="1" fill="white" />
    <circle cx="230" cy="120" r="1.2" fill="white" />
    <circle cx="290" cy="160" r="1.7" fill="white" />
    <circle cx="360" cy="130" r="1.4" fill="white" />
    <circle cx="40" cy="220" r="1" fill="white" />
    <circle cx="100" cy="250" r="1.2" fill="white" />
    <circle cx="170" cy="220" r="1.5" fill="white" />
    <circle cx="260" cy="240" r="1" fill="white" />
    <circle cx="320" cy="220" r="1.3" fill="white" />
    <circle cx="370" cy="260" r="1.6" fill="white" />
    <circle cx="60" cy="320" r="1.4" fill="white" />
    <circle cx="130" cy="340" r="1" fill="white" />
    <circle cx="200" cy="370" r="1.7" fill="white" />
    <circle cx="250" cy="330" r="1.5" fill="white" />
    <circle cx="310" cy="350" r="1.2" fill="white" />
    <circle cx="380" cy="330" r="1" fill="white" />
  </g>
  
  <!-- Planet -->
  <circle cx="330" cy="70" r="30" fill="#FF6B6B" />
  <circle cx="330" cy="70" r="40" fill="url(#planetGlow)" opacity="0.6" />
  
  <!-- Groovy Rainbow Trail -->
  <path d="M 140,240 C 160,260 190,280 200,220 C 210,160 240,200 260,180" stroke="#FF9AA2" stroke-width="8" stroke-linecap="round" fill="none" opacity="0.7">
    <animate attributeName="d" 
      values="M 140,240 C 160,260 190,280 200,220 C 210,160 240,200 260,180;
              M 140,240 C 150,250 180,270 200,210 C 220,150 230,190 260,180;
              M 140,240 C 160,260 190,280 200,220 C 210,160 240,200 260,180" 
      dur="6s" repeatCount="indefinite" />
  </path>
  <path d="M 140,245 C 160,265 190,285 200,225 C 210,165 240,205 260,185" stroke="#FFDFD3" stroke-width="8" stroke-linecap="round" fill="none" opacity="0.7">
    <animate attributeName="d" 
      values="M 140,245 C 160,265 190,285 200,225 C 210,165 240,205 260,185;
              M 140,245 C 150,255 180,275 200,215 C 220,155 230,195 260,185;
              M 140,245 C 160,265 190,285 200,225 C 210,165 240,205 260,185" 
      dur="6s" repeatCount="indefinite" />
  </path>
  <path d="M 140,250 C 160,270 190,290 200,230 C 210,170 240,210 260,190" stroke="#E2F0CB" stroke-width="8" stroke-linecap="round" fill="none" opacity="0.7">
    <animate attributeName="d" 
      values="M 140,250 C 160,270 190,290 200,230 C 210,170 240,210 260,190;
              M 140,250 C 150,260 180,280 200,220 C 220,160 230,200 260,190;
              M 140,250 C 160,270 190,290 200,230 C 210,170 240,210 260,190" 
      dur="6s" repeatCount="indefinite" />
  </path>
  <path d="M 140,255 C 160,275 190,295 200,235 C 210,175 240,215 260,195" stroke="#B5EAD7" stroke-width="8" stroke-linecap="round" fill="none" opacity="0.7">
    <animate attributeName="d" 
      values="M 140,255 C 160,275 190,295 200,235 C 210,175 240,215 260,195;
              M 140,255 C 150,265 180,285 200,225 C 220,165 230,205 260,195;
              M 140,255 C 160,275 190,295 200,235 C 210,175 240,215 260,195" 
      dur="6s" repeatCount="indefinite" />
  </path>
  <path d="M 140,260 C 160,280 190,300 200,240 C 210,180 240,220 260,200" stroke="#C7CEEA" stroke-width="8" stroke-linecap="round" fill="none" opacity="0.7">
    <animate attributeName="d" 
      values="M 140,260 C 160,280 190,300 200,240 C 210,180 240,220 260,200;
              M 140,260 C 150,270 180,290 200,230 C 220,170 230,210 260,200;
              M 140,260 C 160,280 190,300 200,240 C 210,180 240,220 260,200" 
      dur="6s" repeatCount="indefinite" />
  </path>
  
  <!-- Astronaut Group -->
  <g id="astronaut">
    <animateTransform
      attributeName="transform"
      type="translate"
      values="0,0; 0,-10; 0,0"
      dur="4s"
      repeatCount="indefinite"
      additive="sum" />
    <animateTransform
      attributeName="transform"
      type="rotate"
      values="0 200 200; 5 200 200; 0 200 200; -5 200 200; 0 200 200"
      dur="8s"
      repeatCount="indefinite"
      additive="sum" />
    
    <!-- Astronaut Body -->
    <ellipse cx="200" cy="200" rx="45" ry="55" fill="white" stroke="#6A7EFC" stroke-width="2" />
    
    <!-- Backpack -->
    <rect x="170" y="180" width="20" height="35" rx="5" fill="#6A7EFC" stroke="#5D6CF5" stroke-width="2" />
    <rect x="175" y="190" width="10" height="5" rx="2" fill="#FFA400" />
    <rect x="175" y="200" width="10" height="5" rx="2" fill="#FFA400" />
    
    <!-- Helmet Visor -->
    <ellipse cx="200" cy="170" rx="35" ry="30" fill="#47CAFF" opacity="0.7" stroke="#6A7EFC" stroke-width="2" />
    
    <!-- Face Inside Helmet -->
    <circle cx="190" cy="170" r="4" fill="black" />
    <circle cx="210" cy="170" r="4" fill="black" />
    <path d="M 190,185 Q 200,195 210,185" fill="none" stroke="black" stroke-width="3" stroke-linecap="round" />
    
    <!-- Arms -->
    <path d="M 155,190 Q 140,170 120,180" fill="none" stroke="white" stroke-width="12" stroke-linecap="round">
      <animate attributeName="d" 
        values="M 155,190 Q 140,170 120,180;
                M 155,190 Q 140,180 120,190;
                M 155,190 Q 140,170 120,180" 
        dur="4s" repeatCount="indefinite" />
    </path>
    <path d="M 245,190 Q 260,170 280,180" fill="none" stroke="white" stroke-width="12" stroke-linecap="round">
      <animate attributeName="d" 
        values="M 245,190 Q 260,170 280,180;
                M 245,190 Q 260,180 280,190;
                M 245,190 Q 260,170 280,180" 
        dur="4s" repeatCount="indefinite" />
    </path>
    
    <!-- Hands -->
    <circle cx="120" cy="180" r="8" fill="white" stroke="#6A7EFC" stroke-width="2">
      <animate attributeName="cy" 
        values="180; 190; 180" 
        dur="4s" repeatCount="indefinite" />
    </circle>
    <circle cx="280" cy="180" r="8" fill="white" stroke="#6A7EFC" stroke-width="2">
      <animate attributeName="cy" 
        values="180; 190; 180" 
        dur="4s" repeatCount="indefinite" />
    </circle>
    
    <!-- Legs -->
    <path d="M 185,255 Q 180,280 170,310" fill="none" stroke="white" stroke-width="15" stroke-linecap="round">
      <animate attributeName="d" 
        values="M 185,255 Q 180,280 170,310;
                M 185,255 Q 175,285 165,315;
                M 185,255 Q 180,280 170,310" 
        dur="4s" repeatCount="indefinite" />
    </path>
    <path d="M 215,255 Q 220,280 230,310" fill="none" stroke="white" stroke-width="15" stroke-linecap="round">
      <animate attributeName="d" 
        values="M 215,255 Q 220,280 230,310;
                M 215,255 Q 225,285 235,315;
                M 215,255 Q 220,280 230,310" 
        dur="4s" repeatCount="indefinite" />
    </path>
    
    <!-- Boots -->
    <ellipse cx="170" cy="310" rx="15" ry="10" fill="white" stroke="#6A7EFC" stroke-width="2">
      <animate attributeName="cy" 
        values="310; 315; 310" 
        dur="4s" repeatCount="indefinite" />
    </ellipse>
    <ellipse cx="230" cy="310" rx="15" ry="10" fill="white" stroke="#6A7EFC" stroke-width="2">
      <animate attributeName="cy" 
        values="310; 315; 310" 
        dur="4s" repeatCount="indefinite" />
    </ellipse>
    
    <!-- Helmet Antenna -->
    <line x1="200" y1="140" x2="200" y2="125" stroke="#6A7EFC" stroke-width="3" />
    <circle cx="200" cy="120" r="5" fill="#FF5757">
      <animate attributeName="opacity" values="1;0.5;1" dur="1s" repeatCount="indefinite" />
    </circle>
    
    <!-- Groovy Decorations -->
    <circle cx="220" cy="195" r="7" fill="#FFA400" />
    <path d="M 220,200 L 225,210 L 215,210 Z" fill="#FFA400" />
    <circle cx="180" cy="250" r="6" fill="#FF5757" />
    <circle cx="220" cy="250" r="6" fill="#47CAFF" />
    
    <!-- Peace Sign Hand -->
    <path d="M 120,175 L 115,165 M 120,175 L 125,165" stroke="#6A7EFC" stroke-width="2" stroke-linecap="round">
      <animate attributeName="d" 
        values="M 120,175 L 115,165 M 120,175 L 125,165;
                M 120,185 L 115,175 M 120,185 L 125,175;
                M 120,175 L 115,165 M 120,175 L 125,165" 
        dur="4s" repeatCount="indefinite" />
    </path>
  </g>
  
  <!-- Floating Music Notes -->
  <g>
    <path d="M 100,130 Q 95,120 90,125 Q 85,130 90,135 L 93,150 L 93,110 M 93,110 L 100,115" fill="none" stroke="#FFA400" stroke-width="2" stroke-linecap="round">
      <animate attributeName="opacity" values="0;1;0" dur="8s" repeatCount="indefinite" begin="0s" />
      <animateTransform attributeName="transform" type="translate" values="0,0; -20,-30; -40,-40" dur="8s" repeatCount="indefinite" />
    </path>
    <path d="M 300,280 Q 295,270 290,275 Q 285,280 290,285 L 293,300 L 293,260 M 293,260 L 300,265" fill="none" stroke="#FF5757" stroke-width="2" stroke-linecap="round">
      <animate attributeName="opacity" values="0;1;0" dur="8s" repeatCount="indefinite" begin="2s" />
      <animateTransform attributeName="transform" type="translate" values="0,0; 20,-30; 40,-40" dur="8s" repeatCount="indefinite" begin="2s" />
    </path>
    <path d="M 90,250 Q 85,240 80,245 Q 75,250 80,255 L 83,270 L 83,230 M 83,230 L 90,235" fill="none" stroke="#47CAFF" stroke-width="2" stroke-linecap="round">
      <animate attributeName="opacity" values="0;1;0" dur="8s" repeatCount="indefinite" begin="4s" />
      <animateTransform attributeName="transform" type="translate" values="0,0; -20,-30; -40,-40" dur="8s" repeatCount="indefinite" begin="4s" />
    </path>
  </g>
</svg>
